<svg xmlns="http://www.w3.org/2000/svg" viewBox="185 185 650 650">
  <path fill="#141413" d="M244.907288,658.819641 C238.752258,629.052246 247.304123,603.823792 266.722290,581.786011 C272.909027,574.764709 279.824341,568.376465 287.913483,563.634583 C313.430664,548.676270 332.245880,527.326355 348.094452,502.744324 C371.031158,467.168182 401.429382,439.535217 438.775787,419.492767 C461.312714,407.398010 480.796753,391.301605 497.972778,372.447510 C534.580627,332.263214 578.650818,302.084808 626.023804,276.238617 C649.465332,263.449158 673.988525,253.057480 698.616272,242.874542 C699.921631,242.334824 701.250916,241.258591 702.852844,242.310349 C703.737427,244.184906 702.199646,244.966629 701.183105,245.969833 C672.694824,274.085602 646.288208,304.061798 621.272522,335.286041 C594.887451,368.219513 571.658936,403.393311 548.105164,438.333893 C529.342407,466.167267 506.756500,490.407867 480.930420,511.841064 C455.883881,532.627319 436.586700,558.206360 420.908600,586.631775 C406.314056,613.092651 390.532654,638.770081 369.111603,660.424438 C354.504364,675.190735 338.760315,688.585083 319.140656,696.305786 C283.821381,710.204407 255.212967,695.774841 244.907288,658.819641 z"/>
  <path fill="#141413" d="M587.667725,709.641296 C562.900635,738.146118 534.807434,761.883606 500.497803,777.459839 C453.375000,798.853333 406.204468,797.609619 359.272522,776.714478 C352.746704,773.809021 346.589783,770.065491 340.314148,766.615173 C338.938080,765.858582 337.166107,765.325500 336.796356,762.751831 C342.445435,761.705811 348.128326,760.807373 353.741943,759.589478 C394.795654,750.683228 431.632446,733.386780 462.161804,704.050415 C479.886047,687.018738 491.939911,666.134155 500.994720,643.481689 C510.761627,619.047974 522.604797,595.869080 539.974670,575.821045 C549.710510,564.584106 561.052246,554.955200 571.261841,544.204529 C591.757812,522.622192 605.485352,496.777588 617.687622,469.981598 C642.837341,414.753113 663.895569,357.917084 684.212769,300.790833 C690.293701,283.693054 696.188721,266.529236 702.196167,249.405243 C702.681763,248.021362 702.908752,246.464142 704.290833,245.434814 C706.302612,245.587280 706.454346,247.268356 706.558044,248.647812 C709.104004,282.524902 711.326233,316.416077 710.080688,350.423981 C707.443359,422.434814 695.375916,492.728058 671.329285,560.777710 C654.575806,608.188721 632.278259,652.721008 601.450378,692.695862 C597.077759,698.365845 592.418823,703.815125 587.667725,709.641296 z"/>
  <path fill="#141413" d="M439.032104,299.042236 C426.089447,311.104919 413.422699,322.921936 397.841125,331.036682 C389.534576,335.362701 380.775818,338.550354 372.030396,341.767365 C342.614746,352.588013 319.900513,371.583527 303.478577,398.111725 C296.643555,409.153168 290.426270,420.575500 283.838409,431.771851 C273.674500,449.045929 260.566528,463.774628 245.157822,476.550201 C227.118530,491.506866 214.925751,510.498657 207.013779,532.413574 C206.388382,534.145813 206.490463,536.466125 204.015198,537.486206 C201.891602,534.386902 202.419647,530.718384 202.027161,527.422180 C196.559158,481.500732 200.405624,436.418182 214.598236,392.301941 C231.646286,339.309906 260.866974,294.306335 303.275085,258.165436 C339.890778,226.960922 382.190216,207.087555 429.052429,196.702148 C458.140594,190.255753 487.614471,187.598022 517.338318,188.885986 C581.497131,191.665985 642.286926,207.291000 699.053101,237.730103 C700.058167,238.269043 701.267822,238.589523 701.316223,240.160950 C700.212830,241.999542 698.394897,241.243683 696.877686,241.109863 C682.934448,239.880219 668.968994,239.238388 654.971619,239.372726 C602.681335,239.874527 551.408875,246.746216 501.871429,264.169250 C479.085876,272.183258 457.684479,282.796936 439.032104,299.042236 z"/>
  <path fill="#141413" d="M826.298096,509.991791 C823.512512,585.264282 799.866760,652.378357 752.312073,710.538513 C715.005188,756.165405 668.423340,788.620789 612.388977,807.164124 C590.193848,814.509094 567.400879,818.891113 543.992798,820.501282 C518.095032,822.282715 492.452240,821.155884 466.954773,816.387146 C465.998260,816.208313 465.055481,815.917358 464.140717,815.584229 C463.942902,815.512207 463.893463,815.032532 463.554474,814.192383 C468.058563,813.747375 472.392487,813.248596 476.738464,812.900452 C536.836243,808.087769 589.986694,785.738953 637.178345,748.793091 C672.706055,720.978821 700.408386,686.513550 721.952942,646.966919 C743.206055,607.955566 756.749207,566.349121 763.404235,522.533813 C768.731934,487.456970 768.660767,452.308563 764.358337,417.027649 C757.095886,357.473267 736.718079,302.395691 709.021484,249.668259 C708.368103,248.424301 706.936157,247.358368 708.289429,244.782028 C746.200562,278.587433 775.843079,318.114410 796.874023,364.006989 C818.024780,410.161011 827.915161,458.687866 826.298096,509.991791 z"/>
</svg>
